<svg width="36" height="38" viewBox="0 0 36 38" fill="none" xmlns="http://www.w3.org/2000/svg">
<path d="M17.0242 13.0312C15.2298 13.0312 13.77 14.5397 13.77 16.3939C13.77 18.2481 15.2298 19.7565 17.0242 19.7565C18.8186 19.7565 20.2784 18.2481 20.2784 16.3939C20.2784 14.5397 18.8189 13.0312 17.0242 13.0312ZM17.0242 18.5983C15.8479 18.5983 14.8909 17.609 14.8909 16.3939C14.8909 15.1784 15.8476 14.1895 17.0242 14.1895C18.1998 14.1895 19.1575 15.1781 19.1575 16.3939C19.1575 17.6087 18.2001 18.5983 17.0242 18.5983Z" fill="white"/>
<path d="M23.1177 9.4451L20.8183 10.8176C20.4982 10.5839 20.1576 10.3812 19.8009 10.2109V7.46484H14.2479V10.2109C13.9156 10.37 13.5955 10.5587 13.2926 10.7743L11.006 9.3739L8.17541 14.3094L10.462 15.7091C10.4363 15.9507 10.4241 16.1769 10.4241 16.3939C10.4241 16.5894 10.4337 16.7884 10.4544 17.0019L8.15332 18.3751L10.9298 23.3433L13.2306 21.9701C13.5513 22.2038 13.8912 22.4065 14.2486 22.5768V25.3229H19.8016V22.5768C20.1339 22.4177 20.4533 22.229 20.7563 22.0134L23.0429 23.4138L25.8734 18.4784L23.5875 17.0786C23.6132 16.8384 23.6254 16.6115 23.6254 16.3939C23.6254 16.1976 23.6158 15.9994 23.5951 15.7858L25.8962 14.4126L23.1177 9.4451ZM22.3816 15.1723L22.4376 15.5616C22.4828 15.8778 22.5045 16.1418 22.5045 16.3939C22.5045 16.6654 22.4795 16.958 22.428 17.2901L22.368 17.6788L24.3372 18.8844L22.6496 21.8274L20.6805 20.6211L20.3791 20.864C19.969 21.1941 19.5164 21.4615 19.0347 21.6577L18.68 21.8022V24.165H15.3685V21.8029L15.0144 21.6577C14.509 21.4516 14.0402 21.1713 13.6199 20.8255L13.3212 20.5792L11.3399 21.7616L9.68464 18.7996L11.6679 17.6158L11.6119 17.2264C11.5667 16.9103 11.545 16.6463 11.545 16.3942C11.545 16.1213 11.5694 15.8359 11.6215 15.4966L11.6801 15.1086L9.71167 13.9036L11.3993 10.9607L13.3684 12.1676L13.6697 11.9248C14.0811 11.594 14.5338 11.3266 15.0147 11.1303L15.3688 10.9859V8.62309H18.6804V10.9852L19.0351 11.1303C19.5391 11.3364 20.0086 11.6168 20.4293 11.9626L20.7286 12.2089L22.7093 11.0271L24.3652 13.9885L22.3816 15.1723Z" fill="white"/>
<path d="M3.372 28.936C3.436 28.744 3.52 28.604 3.624 28.516C3.728 28.428 3.864 28.384 4.032 28.384C4.232 28.384 4.388 28.428 4.5 28.516C4.62 28.604 4.68 28.712 4.68 28.84C4.68 28.872 4.66 28.94 4.62 29.044L7.464 37H6.372L5.58 34.708H2.352L1.56 37H0.48L3.372 28.936ZM5.34 33.868L3.984 29.812L2.628 33.868H5.34ZM12.9128 37.12C12.8168 37.024 12.7368 36.884 12.6728 36.7C12.6088 36.516 12.5728 36.312 12.5648 36.088C12.0848 36.776 11.4288 37.12 10.5968 37.12C9.78884 37.12 9.15284 36.852 8.68884 36.316C8.23284 35.772 8.00484 35.056 8.00484 34.168C8.00484 33.24 8.23284 32.492 8.68884 31.924C9.15284 31.348 9.80884 31.06 10.6568 31.06C11.4168 31.06 12.0248 31.376 12.4808 32.008V28.192H13.4888V35.488C13.4888 35.816 13.5088 36.076 13.5488 36.268C13.5968 36.452 13.6688 36.624 13.7648 36.784L12.9128 37.12ZM10.7048 36.28C11.0728 36.28 11.3888 36.192 11.6528 36.016C11.9248 35.84 12.1288 35.604 12.2648 35.308C12.4088 35.012 12.4808 34.692 12.4808 34.348V33.844C12.4808 33.516 12.4128 33.204 12.2768 32.908C12.1408 32.604 11.9408 32.36 11.6768 32.176C11.4208 31.992 11.1128 31.9 10.7528 31.9C10.1528 31.9 9.71284 32.112 9.43284 32.536C9.16084 32.96 9.02484 33.504 9.02484 34.168C9.02484 34.792 9.16484 35.3 9.44484 35.692C9.72484 36.084 10.1448 36.28 10.7048 36.28ZM22.3846 37.12C22.1286 36.68 22.0006 36.204 22.0006 35.692V33.388C22.0006 32.876 21.9206 32.504 21.7606 32.272C21.6006 32.032 21.3166 31.912 20.9086 31.912C20.4846 31.912 20.1566 32.06 19.9246 32.356C19.7006 32.644 19.5886 33.016 19.5886 33.472V37H18.6046V33.388C18.6046 32.916 18.5126 32.552 18.3286 32.296C18.1526 32.04 17.8766 31.912 17.5006 31.912C17.0606 31.912 16.7206 32.084 16.4806 32.428C16.2406 32.772 16.1206 33.212 16.1206 33.748V37H15.1126V32.644C15.1126 32.356 15.0926 32.12 15.0526 31.936C15.0126 31.752 14.9446 31.576 14.8486 31.408L15.7486 31.06C15.8286 31.204 15.8926 31.352 15.9406 31.504C15.9966 31.656 16.0326 31.84 16.0486 32.056C16.2086 31.744 16.4326 31.5 16.7206 31.324C17.0166 31.148 17.3326 31.06 17.6686 31.06C18.4046 31.06 18.9166 31.424 19.2046 32.152C19.3886 31.8 19.6406 31.532 19.9606 31.348C20.2806 31.156 20.6446 31.06 21.0526 31.06C21.7166 31.06 22.2086 31.252 22.5286 31.636C22.8486 32.02 23.0086 32.54 23.0086 33.196V35.692C23.0086 36.092 23.1006 36.448 23.2846 36.76L22.3846 37.12ZM25.2882 29.92C25.0802 29.92 24.9042 29.852 24.7602 29.716C24.6162 29.572 24.5442 29.4 24.5442 29.2C24.5442 29 24.6162 28.832 24.7602 28.696C24.9042 28.552 25.0802 28.48 25.2882 28.48C25.4962 28.48 25.6722 28.552 25.8162 28.696C25.9602 28.832 26.0322 29 26.0322 29.2C26.0322 29.4 25.9602 29.572 25.8162 29.716C25.6722 29.852 25.4962 29.92 25.2882 29.92ZM24.7722 31.18H25.7802V37H24.7722V31.18ZM31.8659 37.12C31.6099 36.68 31.4819 36.204 31.4819 35.692V33.412C31.4819 32.9 31.3779 32.524 31.1699 32.284C30.9699 32.036 30.6459 31.912 30.1979 31.912C29.8779 31.912 29.5939 32 29.3459 32.176C29.0979 32.352 28.9059 32.588 28.7699 32.884C28.6339 33.18 28.5659 33.496 28.5659 33.832V37H27.5579V32.644C27.5579 32.372 27.5339 32.14 27.4859 31.948C27.4459 31.756 27.3819 31.576 27.2939 31.408L28.1939 31.06C28.2579 31.18 28.3179 31.336 28.3739 31.528C28.4379 31.712 28.4779 31.9 28.4939 32.092C28.7019 31.772 28.9779 31.52 29.3219 31.336C29.6739 31.152 30.0499 31.06 30.4499 31.06C31.1379 31.06 31.6499 31.264 31.9859 31.672C32.3219 32.072 32.4899 32.656 32.4899 33.424V35.692C32.4899 36.092 32.5819 36.448 32.7659 36.76L31.8659 37.12Z" fill="white"/>
</svg>
