<svg width="37" height="37" viewBox="0 0 37 37" fill="none" xmlns="http://www.w3.org/2000/svg">
<path d="M2.61378 29.9916C2.87877 30.1361 9.17651 33.5309 15.6094 33.5309C16.2464 33.5309 16.8978 33.5014 17.5555 33.4442L17.1653 35.1352C17.1432 35.2308 17.1458 35.3304 17.1729 35.4246C17.1999 35.5189 17.2504 35.6047 17.3198 35.674C17.3891 35.7434 17.4749 35.7939 17.5692 35.821C17.6634 35.848 17.763 35.8506 17.8586 35.8286L23.1729 34.6021C23.1775 34.6011 23.1819 34.5995 23.1864 34.5983C23.1978 34.5954 23.2093 34.5922 23.2206 34.5886C23.2278 34.5862 23.2351 34.5836 23.2423 34.5809C23.2526 34.5771 23.2628 34.5731 23.2729 34.5687C23.2809 34.5653 23.2888 34.5615 23.2966 34.5578C23.3044 34.554 23.3141 34.5489 23.3227 34.5442C23.3313 34.5394 23.3398 34.5343 23.3482 34.5291C23.3565 34.5239 23.3626 34.5199 23.3698 34.5147C23.3789 34.5084 23.3877 34.5019 23.3964 34.4952C23.4025 34.4904 23.4086 34.4856 23.4146 34.4807C23.4236 34.4731 23.4323 34.4651 23.4407 34.457C23.4442 34.4537 23.448 34.4509 23.4514 34.4475L33.2627 24.6366L33.6715 24.2278C34.3191 23.5767 34.6821 22.6954 34.6809 21.777C34.6796 20.8587 34.3143 19.9783 33.6649 19.329C33.0156 18.6796 32.1352 18.3142 31.2169 18.3129C30.2985 18.3117 29.4172 18.6746 28.7661 19.3222L28.3575 19.7307L26.9812 21.107C25.884 18.9931 24.3463 17.2297 22.5007 15.9822C21.355 15.2069 20.0864 14.6312 18.7486 14.2794C20.139 13.5738 21.2512 12.4205 21.9058 11.0054C22.5604 9.59029 22.7192 7.99593 22.3567 6.4795C21.9941 4.96306 21.1313 3.61298 19.9073 2.64702C18.6834 1.68107 17.1698 1.15556 15.6106 1.15527C14.0515 1.15499 12.5376 1.67994 11.3134 2.64544C10.0891 3.61095 9.22577 4.96071 8.86264 6.47701C8.4995 7.99331 8.65774 9.58773 9.31182 11.0031C9.9659 12.4184 11.0777 13.5722 12.4678 14.2782C10.0715 14.9069 7.90391 16.2589 6.18008 18.2364C3.68605 21.097 2.3125 25.0916 2.3125 29.4841C2.3125 29.5879 2.34048 29.6899 2.39349 29.7792C2.44651 29.8685 2.5226 29.9419 2.61378 29.9916ZM18.5 34.494L19.2838 31.0975L21.8965 33.7102L18.5 34.494ZM29.5836 20.1401C29.798 19.924 30.053 19.7524 30.3339 19.6351C30.6149 19.5178 30.9162 19.4571 31.2206 19.4565C31.525 19.456 31.8266 19.5155 32.108 19.6317C32.3893 19.748 32.645 19.9186 32.8602 20.1339C33.0755 20.3491 33.2461 20.6048 33.3624 20.8862C33.4786 21.1675 33.5381 21.4691 33.5375 21.7735C33.5369 22.0779 33.4762 22.3792 33.3589 22.6602C33.2416 22.9411 33.07 23.1961 32.8539 23.4105L29.5836 20.1401ZM28.766 20.9574L32.0363 24.2278L23.0428 33.2214L19.7724 29.951L28.766 20.9574ZM9.82812 8.09344C9.82812 6.95002 10.1672 5.83227 10.8024 4.88155C11.4377 3.93083 12.3406 3.18983 13.397 2.75226C14.4534 2.3147 15.6158 2.20021 16.7372 2.42328C17.8587 2.64635 18.8888 3.19696 19.6973 4.00548C20.5059 4.814 21.0565 5.84412 21.2795 6.96558C21.5026 8.08703 21.3881 9.24945 20.9506 10.3058C20.513 11.3622 19.772 12.2651 18.8213 12.9004C17.8705 13.5356 16.7528 13.8747 15.6094 13.8747C14.0766 13.873 12.6072 13.2633 11.5233 12.1795C10.4395 11.0957 9.82987 9.62619 9.82812 8.09344ZM7.05161 18.9958C9.2805 16.439 12.3197 15.0309 15.6094 15.0309C20.0956 15.0309 24.0055 17.6194 26.1198 21.9684L18.5464 29.5419C18.5431 29.5452 18.5402 29.5491 18.5369 29.5523C18.529 29.5607 18.5211 29.5692 18.5136 29.5781C18.509 29.5836 18.5046 29.5892 18.5001 29.5949C18.4929 29.6041 18.4857 29.6134 18.4793 29.6231C18.4751 29.6291 18.4712 29.6352 18.4673 29.6413C18.4613 29.651 18.4553 29.6607 18.4498 29.6708C18.4459 29.6777 18.4425 29.6847 18.4389 29.6918C18.4341 29.7013 18.4294 29.7109 18.4251 29.7207C18.4215 29.729 18.4183 29.7374 18.4152 29.7459C18.412 29.7543 18.4084 29.7638 18.4054 29.7731C18.4024 29.7823 18.3996 29.793 18.3969 29.803C18.3953 29.8089 18.3933 29.8145 18.3919 29.8205L17.8299 32.2559C17.0923 32.3337 16.3511 32.3734 15.6094 32.3747C10.2481 32.3747 4.79894 29.8033 3.47186 29.134C3.54203 25.1599 4.80689 21.571 7.05161 18.9958Z" fill="black"/>
</svg>
