<svg width="44" height="27" viewBox="0 0 44 27" fill="none" xmlns="http://www.w3.org/2000/svg">
<path d="M38.5 0H5.5C2.46263 0 0 2.01488 0 4.5V22.5C0 24.9851 2.46263 27 5.5 27H38.5C41.5374 27 44 24.9851 44 22.5V4.5C44 2.01488 41.5374 0 38.5 0ZM39.875 2.25L22 13.5L4.125 2.25H39.875ZM2.75 22.5V4.5L15.125 12.375L2.88063 23.1503C2.80363 22.9432 2.75 22.7284 2.75 22.5ZM4.8881 24.6904L17.2975 13.8724L22 16.7794L26.5004 13.8532L39.1119 24.6892C38.9139 24.7264 5.0861 24.7264 4.8881 24.6904ZM41.1194 23.1514L28.875 12.375L41.25 4.5V22.5C41.25 22.7284 41.1964 22.9432 41.1194 23.1514Z" fill="#FF4170"/>
</svg>
