<svg width="39" height="47" viewBox="0 0 39 47" fill="none" xmlns="http://www.w3.org/2000/svg">
<path d="M23.1563 35.1582C23.1563 38.8484 23.1487 42.5295 23.1639 46.2197C23.1639 46.6236 23.0725 46.7338 22.7374 46.7246C20.1323 46.7062 17.5348 46.7062 14.9298 46.7246C14.5718 46.7246 14.4575 46.6236 14.4575 46.1738C14.4727 38.8576 14.4651 31.5506 14.4651 24.2343C14.4651 23.5 14.5337 23.5918 13.9091 23.5826C12.8046 23.5826 11.7001 23.5734 10.5956 23.5918C10.329 23.5918 10.2528 23.4908 10.2528 23.1695C10.2604 20.847 10.2604 18.5154 10.2528 16.1929C10.2528 15.8716 10.329 15.7707 10.5956 15.7798C11.7534 15.7982 12.9036 15.7707 14.0614 15.7982C14.3737 15.8074 14.4727 15.7064 14.4727 15.3117C14.4575 13.3564 14.4727 11.392 14.4651 9.43669C14.4575 7.81188 14.6632 6.24215 15.3411 4.81012C16.0723 3.24958 17.1692 2.17555 18.5251 1.4779C19.6677 0.890397 20.8712 0.615006 22.1052 0.532389C24.5503 0.367155 27.003 0.50485 29.4481 0.449772C29.7223 0.440592 29.7909 0.559928 29.7909 0.872038C29.7833 3.2863 29.7833 5.70973 29.7909 8.12399C29.7909 8.49118 29.6766 8.54626 29.41 8.54626C28.0009 8.53708 26.5917 8.53708 25.1825 8.53708C24.0095 8.53708 23.1639 9.55602 23.1639 10.9513C23.1639 12.3925 23.1792 13.8246 23.1563 15.2658C23.1487 15.6789 23.263 15.7798 23.5905 15.7798C25.5177 15.7615 27.4524 15.7798 29.3796 15.7615C29.6995 15.7615 29.8061 15.8716 29.768 16.2572C29.6538 17.4414 29.5548 18.6256 29.4481 19.8097C29.3491 20.948 29.1815 22.0771 29.0292 23.2062C28.9835 23.5275 28.8997 23.6009 28.6559 23.6009C27.003 23.5918 25.3577 23.5918 23.7048 23.6009C23.0573 23.6009 23.1487 23.5 23.1487 24.2894C23.1563 27.9062 23.1563 31.5322 23.1563 35.1582Z" fill="#FF4170"/>
</svg>
