<svg width="39" height="41" viewBox="0 0 39 41" fill="none" xmlns="http://www.w3.org/2000/svg">
<path d="M19.95 0C13.9072 0 8.51973 2.72714 4.86967 7.05071C3.75739 8.36955 2.80428 9.83442 2.04614 11.419L8.7588 16.695C9.53676 14.2659 11.039 12.1814 13.0034 10.7066C14.9486 9.24834 17.347 8.38665 19.9493 8.38665C22.7607 8.38665 25.2998 9.41213 27.2948 11.0895L33.0985 5.12605C29.5629 1.95689 25.0287 0 19.95 0Z" fill="#FF4170"/>
<path d="M2.04688 11.4183L8.75953 16.6944C9.53749 14.2652 11.0397 12.1807 13.0041 10.706C14.9493 9.24768 17.3477 8.38599 19.9501 8.38599C22.7614 8.38599 25.3005 9.41147 27.2956 11.0888L33.0992 5.1254C29.5623 1.95754 25.0288 0 19.9501 0" fill="#FF4170"/>
<path d="M8.16182 20.4992C8.16182 20.3105 8.17524 20.1243 8.18355 19.9375C8.23597 18.8087 8.43094 17.7208 8.75951 16.694L2.04685 11.418C0.812474 13.9945 0.0965252 16.8795 0.015981 19.9375C0.0108671 20.125 0 20.3111 0 20.4992C0 20.688 0.0108671 20.8748 0.0153418 21.0623C0.095886 24.1163 0.811835 27 2.04301 29.5739L8.75375 24.288C8.42838 23.2665 8.23469 22.1831 8.18355 21.0616C8.17524 20.8748 8.16182 20.6887 8.16182 20.4992Z" fill="#FF4170"/>
<path d="M2.04358 29.5739L8.75432 24.288C8.42895 23.2665 8.23526 22.1831 8.18412 21.0616C8.17581 20.8742 8.16238 20.688 8.16238 20.4986C8.16238 20.3098 8.17581 20.1236 8.18412 19.9368C8.23654 18.8081 8.4315 17.7201 8.76007 16.6933L2.04678 11.418" fill="#FF4170"/>
<path d="M26.5757 30.8209C24.7775 31.9865 22.5127 32.6134 19.95 32.6134C18.4503 32.6134 17.0216 32.32 15.7048 31.7984C14.7351 31.4143 13.8299 30.9005 13.0034 30.2822C11.0396 28.8108 9.53676 26.7329 8.7588 24.3057L2.04614 29.581C2.803 31.163 3.75419 32.6259 4.86455 33.9428C8.51461 38.2709 13.906 41 19.95 41C21.7782 41 23.5751 40.7488 25.2908 40.2594C28.1431 39.4451 30.7717 37.971 32.9483 35.8911L26.5757 30.8209Z" fill="#FF4170"/>
<path d="M2.04688 29.5811C2.80374 31.163 3.75492 32.6259 4.86528 33.9428C8.51534 38.2709 13.9067 41.0001 19.9507 41.0001C21.7789 41.0001 23.5758 40.7488 25.2916 40.2594C28.1438 39.4451 30.7724 37.971 32.949 35.8911L26.5758 30.8216C24.7776 31.9872 22.5128 32.6141 19.9501 32.6141C18.4504 32.6141 17.0217 32.3207 15.7049 31.7991C14.7352 31.4149 13.83 30.9012 13.0034 30.2829" fill="#FF4170"/>
<path d="M38.5402 16.5532H37.3442H20.1359V19.9381V21.0629V24.4465H30.6507C30.1157 27.0776 28.6595 29.4693 26.5756 30.8211L32.9488 35.8905C34.6965 34.2211 36.1482 32.1261 37.1927 29.7028C38.3382 27.048 38.9934 23.8684 38.9934 20.3742C38.9934 19.1639 38.8125 17.8688 38.5402 16.5532Z" fill="#FF4170"/>
<path d="M32.9489 35.8905C34.6965 34.2211 36.161 32.1024 37.2056 29.6792C38.3511 27.0244 38.9999 23.8565 38.9999 20.3631C38.9999 19.1521 38.8126 17.8688 38.5403 16.5532H37.3954" fill="#FF4170"/>
<path d="M20.1359 19.8418V21.0626V24.4462H30.3637" fill="#FF4170"/>
</svg>
