<svg id="Capa_1" data-name="Capa 1" xmlns="http://www.w3.org/2000/svg" viewBox="0 0 506.26 400"><defs><style>.cls-1{fill:#68c5de;}</style></defs><title>iconos-camara</title><path class="cls-1" d="M447.75,400H58.51A58.57,58.57,0,0,1,0,341.49V104.21A58.58,58.58,0,0,1,58.51,45.69h79.42l7-23.44C147.72,9.42,159.45,0,173.24,0H333a29.44,29.44,0,0,1,28.43,22.36l.17.8L368,45.69h79.82a58.57,58.57,0,0,1,58.49,58.52V341.49A58.59,58.59,0,0,1,447.75,400ZM58.51,65.2a39.05,39.05,0,0,0-39,39V341.49a39,39,0,0,0,39,39H447.75a39,39,0,0,0,39-39V104.21a39,39,0,0,0-39-39H353.18L342.5,27.12A9.79,9.79,0,0,0,333,19.49H173.24a9.7,9.7,0,0,0-9.51,7.64L152.47,65.2ZM253.14,341A123.76,123.76,0,1,1,376.88,217.3,123.89,123.89,0,0,1,253.14,341Zm0-228A104.26,104.26,0,1,0,357.38,217.29,104.38,104.38,0,0,0,253.14,113Zm182-11.62a18,18,0,1,0,18,18,18,18,0,0,0-18-18Zm0,0"/></svg>