<svg id="Capa_1" data-name="Capa 1" xmlns="http://www.w3.org/2000/svg" viewBox="0 0 457.14 400"><defs><style>.cls-1{fill:#68c5de;}</style></defs><title>iconos-camara</title><path class="cls-1" d="M428.57,57.14H85.71A28.58,28.58,0,0,0,57.14,85.72V371.43A28.57,28.57,0,0,0,85.71,400H428.57a28.57,28.57,0,0,0,28.57-28.57V85.72a28.58,28.58,0,0,0-28.57-28.58Zm9.52,314.29a9.52,9.52,0,0,1-9.52,9.52H85.71a9.52,9.52,0,0,1-9.52-9.52V85.72a9.52,9.52,0,0,1,9.52-9.53H428.57a9.53,9.53,0,0,1,9.52,9.53Zm0,0"/><path class="cls-1" d="M390.47,0H28.57A28.57,28.57,0,0,0,0,28.57V333.33a28.57,28.57,0,0,0,28.57,28.58h9.52V342.86H28.57A9.53,9.53,0,0,1,19,333.33V28.57a9.53,9.53,0,0,1,9.53-9.52h361.9A9.53,9.53,0,0,1,400,28.57v9.52h19V28.57A28.57,28.57,0,0,0,390.47,0Zm0,0"/><path class="cls-1" d="M216.25,193.27a9.52,9.52,0,0,0-13.47,0L59.93,336.12,73.39,349.6,209.52,213.47,355.17,359.11l13.46-13.46Zm0,0"/><path class="cls-1" d="M349.59,193.27a9.52,9.52,0,0,0-13.47,0L288.5,240.88,302,254.35l40.9-40.88,98,98L454.35,298Zm0,0"/><path class="cls-1" d="M276.19,95.24a47.62,47.62,0,1,0,47.61,47.62,47.62,47.62,0,0,0-47.61-47.62Zm0,76.19a28.57,28.57,0,1,1,28.57-28.57,28.57,28.57,0,0,1-28.57,28.57Zm0,0"/></svg>