<svg width="24" height="26" viewBox="0 0 24 26" fill="none" xmlns="http://www.w3.org/2000/svg">
<path d="M21.8906 4.09375H2.10938C0.946266 4.09375 0 5.11887 0 6.37891V19.6217C0 20.8818 0.946266 21.9069 2.10938 21.9069H21.8906C23.0537 21.9069 24 20.8818 24 19.6217V6.37891C24 5.11887 23.0537 4.09375 21.8906 4.09375ZM21.6153 5.61719L21.3338 5.87114L12.8369 13.5361C12.3519 13.9735 11.648 13.9735 11.1631 13.5361L2.6662 5.87114L2.38467 5.61719H21.6153ZM1.40625 6.71701L8.32931 12.9622L1.40625 17.9537V6.71701ZM21.8906 20.3835H2.10938C1.76962 20.3835 1.48547 20.121 1.42036 19.7735L9.45684 13.9793L10.2633 14.7068C10.7664 15.1607 11.3833 15.3877 12 15.3877C12.6168 15.3877 13.2336 15.1607 13.7368 14.7068L14.5433 13.9793L22.5797 19.7735C22.5145 20.1211 22.2304 20.3835 21.8906 20.3835ZM22.5938 17.9537L15.6707 12.9623L22.5938 6.71701V17.9537Z" fill="#FF6E75"/>
</svg>
