<svg width="17" height="16" viewBox="0 0 17 16" fill="none" xmlns="http://www.w3.org/2000/svg">
<path d="M8.44784 6.965C8.03636 6.96996 7.63261 6.85894 7.28793 6.64606C6.94324 6.43318 6.67318 6.12805 6.51207 5.76946C6.35096 5.41086 6.30608 5.01501 6.38314 4.6322C6.4602 4.2494 6.65571 3.89693 6.94483 3.61962C7.23394 3.3423 7.6036 3.15265 8.00682 3.07478C8.41003 2.99692 8.82859 3.03434 9.20929 3.18231C9.58999 3.33027 9.91563 3.58209 10.1448 3.90575C10.374 4.22941 10.4964 4.6103 10.4964 5C10.4993 5.51764 10.2852 6.0152 9.90113 6.38357C9.51709 6.75194 8.99445 6.96103 8.44784 6.965ZM8.44784 3.535C8.1408 3.53004 7.83915 3.61172 7.58129 3.76965C7.32344 3.92758 7.12105 4.15461 6.9999 4.42183C6.87875 4.68905 6.84433 4.98436 6.901 5.27017C6.95768 5.55598 7.1029 5.81935 7.31816 6.02674C7.53343 6.23414 7.809 6.37617 8.10979 6.43475C8.41058 6.49333 8.72298 6.46582 9.0072 6.35571C9.29142 6.2456 9.5346 6.05788 9.70579 5.81645C9.87697 5.57502 9.96841 5.2908 9.96845 5C9.97054 4.80916 9.93283 4.61981 9.85748 4.44281C9.78212 4.2658 9.67061 4.10463 9.52934 3.96852C9.38807 3.83242 9.21981 3.72406 9.03423 3.64966C8.84864 3.57527 8.64937 3.5363 8.44784 3.535Z" fill="black"/>
<path d="M8.32061 12.9251C8.32061 12.9251 8.32061 12.9251 8.28933 12.8951C8.25805 12.8651 8.30497 12.9201 8.32061 12.9251Z" fill="black"/>
<path d="M8.62171 12.895C8.62171 12.895 8.62171 12.92 8.59044 12.925C8.55916 12.93 8.61129 12.905 8.62171 12.895Z" fill="black"/>
<path d="M8.58889 12.9248C8.55204 12.9447 8.51113 12.9566 8.46899 12.9598C8.51113 12.9566 8.55204 12.9447 8.58889 12.9248Z" fill="black"/>
<path d="M8.44624 12.9648C8.39957 12.9645 8.3541 12.9505 8.31592 12.9248C8.3541 12.9505 8.39957 12.9645 8.44624 12.9648Z" fill="black"/>
<path d="M14.4301 13.815L10.8556 10.815C10.8325 10.7938 10.8052 10.7771 10.7753 10.766C10.7454 10.7548 10.7135 10.7494 10.6813 10.75H9.87878C10.9348 8.85 12.2864 6.25 12.2864 5.43C12.2811 4.46332 11.8764 3.53702 11.159 2.84928C10.4417 2.16153 9.46857 1.76697 8.44792 1.75C7.42721 1.76821 6.45432 2.16301 5.7364 2.85035C5.01847 3.53769 4.61223 4.46326 4.60415 5.43C4.60415 6.245 5.96637 8.85 7.02235 10.75H6.21452C6.18238 10.7494 6.15043 10.7548 6.12052 10.766C6.09061 10.7771 6.06334 10.7938 6.04029 10.815L2.46579 13.815C2.42486 13.8479 2.39575 13.8921 2.38251 13.9413C2.36926 13.9906 2.37253 14.0426 2.39187 14.09C2.41179 14.137 2.44602 14.1773 2.49022 14.2058C2.53441 14.2343 2.58656 14.2497 2.64003 14.25H14.2558C14.3093 14.2497 14.3614 14.2343 14.4056 14.2058C14.4498 14.1773 14.4841 14.137 14.504 14.09C14.5233 14.0426 14.5266 13.9906 14.5133 13.9413C14.5001 13.8921 14.471 13.8479 14.4301 13.815ZM5.13742 5.43C5.1545 4.59939 5.50732 3.80662 6.12321 3.215C6.73911 2.62339 7.57115 2.278 8.44792 2.25C9.32761 2.26821 10.1651 2.61065 10.7823 3.20449C11.3996 3.79834 11.7479 4.59676 11.7531 5.43C11.7531 6.09 10.4913 8.565 9.26103 10.77C8.98648 11.27 8.70664 11.77 8.44792 12.2C8.18921 11.755 7.91993 11.27 7.63482 10.775C6.4046 8.57 5.13742 6.09 5.13742 5.43ZM3.33697 13.75L6.31484 11.25H7.30746C7.75626 12.045 8.11529 12.65 8.22617 12.835C8.24159 12.8597 8.26339 12.8804 8.28953 12.895C8.28953 12.895 8.28953 12.92 8.32121 12.925C8.35988 12.9507 8.40593 12.9647 8.4532 12.965C8.49588 12.9618 8.53732 12.9499 8.57464 12.93C8.57464 12.93 8.57464 12.93 8.60632 12.9C8.63119 12.8839 8.65267 12.8635 8.66968 12.84C8.77528 12.655 9.13431 12.05 9.5831 11.255H10.5599L13.5378 13.755L3.33697 13.75Z" fill="black"/>
</svg>
