<svg width="64" height="63" viewBox="0 0 64 63" fill="none" xmlns="http://www.w3.org/2000/svg">
<path d="M37.902 61.9624H7.51116C4.37394 61.9624 1.83063 59.7721 1.83063 57.0704V6.07166C1.83063 3.36994 4.37394 1.17969 7.51116 1.17969H37.902C41.0392 1.17969 43.5825 3.36994 43.5825 6.07166V57.0704C43.5825 59.7721 41.0392 61.9624 37.902 61.9624Z" fill="#7B727B"/>
<path d="M37.9022 1.17969H33.6418C36.779 1.17969 39.3223 3.36994 39.3223 6.07166V57.0704C39.3223 59.7721 36.779 61.9624 33.6418 61.9624H37.9022C41.0394 61.9624 43.5827 59.7721 43.5827 57.0704V6.07166C43.5827 3.36994 41.0394 1.17969 37.9022 1.17969Z" fill="#686169"/>
<path d="M39.8904 6.07156V57.0703C39.8904 58.0159 39.0002 58.7825 37.9022 58.7825H7.51135C6.4133 58.7825 5.52316 58.0159 5.52316 57.0703V6.07156C5.52316 5.12595 6.4133 4.35938 7.51135 4.35938H13.2066C13.5377 4.35938 13.8322 4.54038 13.94 4.80992L14.6904 6.68758C14.7982 6.95713 15.0927 7.13813 15.4238 7.13813H29.9898C30.3208 7.13813 30.6153 6.95713 30.7231 6.68758L31.4735 4.80992C31.5813 4.54038 31.8758 4.35938 32.2069 4.35938H37.9022C39.0002 4.35938 39.8904 5.12595 39.8904 6.07156Z" fill="white"/>
<path d="M56.2929 14.4536C48.8383 8.13699 36.8257 8.17454 29.4254 14.5663C23.6081 19.5906 22.3374 27.0766 25.6121 33.177C26.529 34.8852 26.5795 36.8459 25.7184 38.5757L23.9031 42.2223C23.7477 42.5344 24.1152 42.8494 24.4755 42.7129L28.6317 41.1372C30.6346 40.3779 32.9179 40.398 34.904 41.1899C42.0839 44.0532 50.9127 42.8643 56.7216 37.6232C63.9837 31.0709 63.7895 20.806 56.2929 14.4536Z" fill="#F8F7F7"/>
<path d="M56.1593 14.4525C51.911 10.8526 46.1823 9.31776 40.6707 9.84536C44.771 10.239 48.7509 11.7744 51.9114 14.4525C59.408 20.8048 59.6022 31.0698 52.34 37.6221C49.115 40.5318 44.959 42.1904 40.6714 42.6022C46.3708 43.1478 52.3014 41.4895 56.5879 37.6221C63.8501 31.0698 63.6558 20.8048 56.1593 14.4525Z" fill="#EFEFEF"/>
<path d="M28.2452 50.8944H17.1682C15.5211 50.8944 14.1859 49.7445 14.1859 48.3261C14.1859 46.9077 15.5211 45.7578 17.1682 45.7578H28.2452C29.8923 45.7578 31.2275 46.9077 31.2275 48.3261C31.2275 49.7445 29.8923 50.8944 28.2452 50.8944Z" fill="#BDBDBD"/>
<path d="M52.3914 27.7689H33.6457V26.7905C33.6457 22.3326 37.842 18.7188 43.0186 18.7188C48.1951 18.7188 52.3914 22.3326 52.3914 26.7905V27.7689Z" fill="black" fill-opacity="0.6"/>
<path d="M43.0183 18.7188C42.2852 18.7188 41.5728 18.7936 40.8881 18.9307C45.0379 19.7616 48.1308 22.964 48.1308 26.7905V27.7689H52.3912V26.7905C52.3912 22.3326 48.1947 18.7188 43.0183 18.7188Z" fill="#BDBDBD"/>
<path d="M51.4999 31.1939H34.5365C33.9988 31.1939 33.516 30.9105 33.3194 30.4796L32.0832 27.7695H53.9532L52.717 30.4796C52.5205 30.9105 52.0376 31.1939 51.4999 31.1939Z" fill="#7B727B"/>
<path d="M49.6933 27.7695L48.457 30.4796C48.2604 30.9105 47.7776 31.1939 47.2399 31.1939H51.5003C52.038 31.1939 52.5207 30.9105 52.7173 30.4796L53.9537 27.7695H49.6933Z" fill="#686169"/>
<path d="M63.1067 25.9968C63.0211 21.4173 60.8663 17.1142 57.0388 13.8806C56.6191 13.5259 55.9449 13.5315 55.5327 13.8929C55.1208 14.2546 55.1273 14.8354 55.5471 15.19C62.6757 21.213 62.8537 30.7944 55.9522 37.003C50.627 41.7938 42.3478 43.1434 35.3505 40.3608C33.0881 39.4614 30.4835 39.4395 28.2037 40.3013L25.5146 41.3177L26.697 38.9494C27.6702 37.0004 27.6269 34.7657 26.5785 32.8184C23.4055 26.9249 24.8523 19.8832 30.1788 15.2963C35.8811 10.3855 44.7697 9.34072 51.7934 12.7559C52.3052 13.0046 52.9553 12.8492 53.2446 12.4081C53.5338 11.967 53.353 11.4075 52.8407 11.1583C50.2675 9.90721 47.4702 9.19139 44.6479 8.98764V6.07093C44.6477 2.86779 41.6216 0.261719 37.9021 0.261719H7.51125C3.79178 0.261719 0.765625 2.86779 0.765625 6.07093V9.83946C0.814478 11.054 2.84754 11.053 2.89582 9.83946V6.07093C2.89582 3.87921 4.96623 2.09621 7.51125 2.09621H37.9021C40.4471 2.09621 42.5175 3.87921 42.5175 6.07093V8.93114C41.9955 8.9408 41.4744 8.96746 40.9554 9.01161V6.07093C40.9554 4.62107 39.5856 3.4415 37.9021 3.4415H32.2074C31.4197 3.4415 30.7202 3.87199 30.4675 4.51003L29.7838 6.22001H15.631L14.9469 4.50917C14.6907 3.87052 13.9916 3.4415 13.2075 3.4415H7.51125C5.82769 3.4415 4.45797 4.62107 4.45797 6.07093V57.0697C4.45797 58.5196 5.82769 59.6991 7.51125 59.6991H30.8814C32.2917 59.6571 32.2906 57.9062 30.8814 57.8646H7.51125C7.00228 57.8646 6.58817 57.508 6.58817 57.0697V6.07093C6.58817 5.63261 7.00228 5.27599 7.51125 5.27599H13.0005L13.6833 6.98328C13.9369 7.62401 14.6365 8.05462 15.4242 8.05462H29.9905C30.7749 8.05462 31.474 7.62548 31.7303 6.9861L32.4141 5.27599H37.9021C38.4111 5.27599 38.8252 5.63261 38.8252 6.07093V9.29192C26.3185 11.3418 19.1292 23.6596 24.646 33.59C25.4399 35.0649 25.4744 36.7541 24.74 38.2247L22.9249 41.8604C22.68 42.3506 22.8059 42.9103 23.2458 43.2862C23.6874 43.6646 24.3429 43.7651 24.9039 43.5521L29.0601 41.981C30.7813 41.3304 32.7486 41.3468 34.4578 42.0265C35.8758 42.5903 37.3414 43.0003 38.8255 43.2652V57.0697C38.8255 57.508 38.4113 57.8646 37.9024 57.8646H35.8754C34.4651 57.9067 34.4662 59.6575 35.8754 59.6991H37.9021C39.5856 59.6991 40.9554 58.5196 40.9554 57.0697V43.5427C41.4758 43.5865 41.9969 43.6126 42.5175 43.6214V57.0697C42.5175 59.2614 40.4471 61.0444 37.9021 61.0444H7.51125C4.96623 61.0444 2.89582 59.2614 2.89582 57.0697V13.9872C2.84697 12.7727 0.813909 12.7737 0.765625 13.9872V57.0697C0.765625 60.2728 3.79178 62.8789 7.51125 62.8789H37.9021C41.6216 62.8789 44.6477 60.2728 44.6477 57.0697V43.5609C49.4255 43.2066 54.0197 41.3944 57.491 38.2716C61.1979 34.9366 63.1924 30.5774 63.1067 25.9968Z" fill="black"/>
<path d="M28.2457 44.8398H17.1686C11.798 45.0319 11.8021 51.6206 17.1686 51.8109H28.2457C33.6163 51.6189 33.6122 45.0301 28.2457 44.8398ZM28.2457 49.9764H17.1686C14.6246 49.8855 14.6266 46.7643 17.1686 46.6743H28.2457C30.7897 46.7652 30.7877 49.8864 28.2457 49.9764Z" fill="black"/>
<path d="M42.9436 15.9023C42.3553 15.9023 41.8785 16.3129 41.8785 16.8196V17.8473C36.6213 18.3082 32.5056 22.1428 32.5056 26.7898V26.8509H30.4465C29.0361 26.893 29.0373 28.6438 30.4465 28.6854H31.2828L32.2536 30.8137C32.6129 31.601 33.4797 32.1098 34.462 32.1098H51.4254C52.4077 32.1098 53.2745 31.601 53.6338 30.8136L54.6046 28.6854H55.4409C56.8513 28.6434 56.8501 26.8925 55.4409 26.8509H53.3816V26.7898C53.3816 22.1428 49.2659 18.3082 44.0087 17.8473V16.8196C44.0087 16.3129 43.532 15.9023 42.9436 15.9023ZM51.651 30.1427C51.6142 30.2232 51.5256 30.2753 51.4252 30.2753H34.4619C34.3615 30.2753 34.2729 30.2232 34.2361 30.1429L33.5712 28.6854H52.3158L51.651 30.1427ZM51.2514 26.7898V26.8509H34.6358V26.7898C35.0936 17.2961 50.7978 17.3034 51.2514 26.7898Z" fill="black"/>
</svg>
