<svg width="36" height="36" viewBox="0 0 36 36" fill="none" xmlns="http://www.w3.org/2000/svg">
<path d="M24.6349 8.68387C23.9438 8.19112 23.2004 7.77644 22.418 7.44727L21.5337 9.5567C22.1588 9.82016 22.7531 10.1516 23.3057 10.5451L24.6349 8.68387Z" fill="black"/>
<path d="M27.9971 12.437C27.5841 11.6983 27.0903 11.0077 26.5248 10.3779L24.8203 11.904C25.2728 12.4101 25.6683 12.9644 25.9997 13.557L27.9971 12.437Z" fill="black"/>
<path d="M26.7832 15.4193C28.2009 20.2627 25.4238 25.3384 20.5804 26.7561C15.7369 28.1738 10.6612 25.3968 9.2435 20.5533C7.82579 15.7098 10.6029 10.6341 15.4463 9.21643C16.792 8.82256 18.2102 8.74363 19.5912 8.98571L19.9859 6.73099C19.33 6.61789 18.6656 6.56083 18 6.56055C11.6891 6.5687 6.57975 11.6913 6.5879 18.0022C6.59605 24.3132 11.7186 29.4225 18.0296 29.4143C24.3405 29.4062 29.4498 24.2836 29.4417 17.9726C29.4402 16.8916 29.2854 15.8162 28.9819 14.7787L26.7832 15.4193Z" fill="black"/>
<path d="M36 18L33.0692 13.9619L33.5897 8.99943L29.0322 6.96778L27.0006 2.4103L22.0381 2.93079L18 0L13.9619 2.93079L8.99943 2.4103L6.96778 6.96778L2.4103 8.99943L2.93079 13.9619L0 18L2.93079 22.0381L2.4103 27.0006L6.96778 29.0322L8.99943 33.5897L13.9619 33.0692L18 36L22.0381 33.0692L27.0006 33.5897L29.0322 29.0322L33.5897 27.0006L33.0692 22.0381L36 18ZM27.298 27.298L25.5821 31.1405L21.4044 30.6978L18 33.1745L14.5956 30.6978L10.4133 31.1359L8.69743 27.2934L4.85491 25.5775L5.30219 21.4044L2.82555 18L5.30219 14.5956L4.85949 10.4133L8.702 8.69743L10.4179 4.85491L14.6002 5.29304L18 2.82555L21.4044 5.30219L25.5867 4.86406L27.3026 8.70658L31.1451 10.4225L30.6978 14.5956L33.1745 18L30.6978 21.4044L31.1359 25.5867L27.298 27.298Z" fill="black"/>
<path d="M13.0887 17.1911L11.4712 18.8086L15.7118 23.0493L23.3842 15.3768L21.7667 13.7593L15.7118 19.8142L13.0887 17.1911Z" fill="black"/>
</svg>
