<svg width="37" height="37" viewBox="0 0 37 37" fill="none" xmlns="http://www.w3.org/2000/svg">
<path d="M35.8438 30.6406V25.4375H34.6875V27.75H32.9531V14.4531C32.9531 14.2998 32.8922 14.1527 32.7838 14.0443C32.6754 13.9359 32.5283 13.875 32.375 13.875H25.4375C25.2842 13.875 25.1371 13.9359 25.0287 14.0443C24.9203 14.1527 24.8594 14.2998 24.8594 14.4531V27.75H21.9688V28.9062H34.6875V30.0625H21.9688V31.2188H35.2656C35.419 31.2188 35.566 31.1578 35.6744 31.0494C35.7828 30.941 35.8438 30.794 35.8438 30.6406ZM31.7969 27.75H26.0156V15.0312H31.7969V27.75ZM5.78125 19.6562H4.625V17.3438H5.78125V19.6562ZM22.5469 24.2812V15.0312H19.0781V13.875H23.125C23.2783 13.875 23.4254 13.9359 23.5338 14.0443C23.6422 14.1527 23.7031 14.2998 23.7031 14.4531V24.8594C23.7031 25.0127 23.6422 25.1598 23.5338 25.2682C23.4254 25.3766 23.2783 25.4375 23.125 25.4375H21.9688V24.2812H22.5469ZM34.0921 1.59418C34.0608 1.4691 33.9887 1.35805 33.887 1.2787C33.7854 1.19936 33.6602 1.15625 33.5312 1.15625H4.625C4.49607 1.15625 4.37084 1.19936 4.26922 1.2787C4.16759 1.35805 4.09541 1.4691 4.06415 1.59418C4.06415 1.59418 2.33042 8.52901 2.32977 8.53168C2.3188 8.57588 2.31301 8.62121 2.3125 8.66674C2.3125 8.66848 2.3125 20.8125 2.3125 20.8125H3.46875V12.139C3.96838 12.5159 4.57732 12.7194 5.20312 12.7188V11.5625C4.7433 11.562 4.30245 11.3791 3.97731 11.0539C3.65216 10.7288 3.46927 10.288 3.46875 9.82812V9.25H5.78125V8.09375H3.63106L5.07637 2.3125H7.9894L7.23444 6.84247L8.37494 7.03253L9.16162 2.3125H12.0905L11.7093 6.88952L12.8615 6.98548L13.2507 2.3125H16.1875V6.35938H17.3438V2.3125H20.8125V8.09375H18.5V9.25H20.8125V9.82812C20.8124 10.1325 20.7322 10.4315 20.58 10.6951C20.4278 10.9587 20.209 11.1776 19.9454 11.3298C19.6819 11.4821 19.3829 11.5623 19.0785 11.5625C18.7742 11.5627 18.4751 11.4828 18.2114 11.3308L17.6324 12.3316C18.2447 12.6851 18.9654 12.8019 19.6579 12.6598C20.3505 12.5177 20.967 12.1265 21.3906 11.5605C21.6595 11.92 22.0085 12.2119 22.4099 12.413C22.8114 12.6141 23.2542 12.7188 23.7031 12.7188C24.1521 12.7188 24.5949 12.6141 24.9963 12.413C25.3977 12.2119 25.7467 11.92 26.0156 11.5605C26.2845 11.92 26.6335 12.2119 27.0349 12.413C27.4364 12.6141 27.8792 12.7188 28.3281 12.7188C28.7771 12.7188 29.2199 12.6141 29.6213 12.413C30.0227 12.2119 30.3717 11.92 30.6406 11.5605C30.868 11.8647 31.1532 12.121 31.4798 12.3148C31.8064 12.5085 32.168 12.6359 32.544 12.6897C32.9199 12.7434 33.3028 12.7225 33.6706 12.628C34.0384 12.5335 34.384 12.3673 34.6875 12.139V24.2812H35.8438C35.8438 24.2812 35.8438 8.66855 35.8438 8.66682C35.8434 8.62126 35.8377 8.5759 35.8268 8.53168L34.0921 1.59418ZM21.9688 2.3125H24.9056L25.3873 8.09375H21.9688V2.3125ZM25.4375 9.82812C25.4375 10.2881 25.2548 10.7293 24.9295 11.0545C24.6043 11.3798 24.1631 11.5625 23.7031 11.5625C23.2431 11.5625 22.802 11.3798 22.4767 11.0545C22.1515 10.7293 21.9688 10.2881 21.9688 9.82812V9.25H25.4375V9.82812ZM26.0658 2.3125H28.9946L29.9581 8.09375H26.5476L26.0658 2.3125ZM30.0625 9.82812C30.0625 10.2881 29.8798 10.7293 29.5545 11.0545C29.2293 11.3798 28.7881 11.5625 28.3281 11.5625C27.8681 11.5625 27.427 11.3798 27.1017 11.0545C26.7765 10.7293 26.5938 10.2881 26.5938 9.82812V9.25H30.0625V9.82812ZM30.6486 5.20312L30.1669 2.3125H33.0799L34.5252 8.09375H31.1304L30.6486 5.20312ZM34.6875 9.82812C34.6875 10.2881 34.5048 10.7293 34.1795 11.0545C33.8543 11.3798 33.4131 11.5625 32.9531 11.5625C32.4931 11.5625 32.052 11.3798 31.7267 11.0545C31.4015 10.7293 31.2188 10.2881 31.2188 9.82812V9.25H34.6875V9.82812ZM30.6406 23.125H29.4844V19.6562H30.6406V23.125ZM3.515 23.8182L2.38187 23.5881C2.3357 23.8162 2.31246 24.0485 2.3125 24.2812V32.9531C2.31336 33.7195 2.61818 34.4542 3.1601 34.9962C3.70201 35.5381 4.43675 35.8429 5.20312 35.8438H17.9219C18.6883 35.8429 19.423 35.5381 19.9649 34.9962C20.5068 34.4542 20.8116 33.7195 20.8125 32.9531V24.2812C20.8114 23.3616 20.4457 22.4799 19.7954 21.8296C19.1451 21.1793 18.2634 20.8136 17.3438 20.8125H14.4531V20.5144C15.082 20.0921 15.6116 19.5381 16.0052 18.8908C16.3988 18.2435 16.647 17.5183 16.7325 16.7656H16.7656C17.2256 16.7656 17.6668 16.5829 17.992 16.2576C18.3173 15.9324 18.5 15.4912 18.5 15.0312C18.5 14.5713 18.3173 14.1301 17.992 13.8049C17.6668 13.4796 17.2256 13.2969 16.7656 13.2969C16.7656 13.2969 16.7627 11.43 16.7584 11.3638C17.1358 10.9414 17.3442 10.3946 17.3438 9.82812V8.09375C17.3438 7.94042 17.2828 7.79337 17.1744 7.68495C17.066 7.57653 16.919 7.51562 16.7656 7.51562H9.25C8.48362 7.51649 7.74888 7.82131 7.20697 8.36322C6.66506 8.90513 6.36024 9.63987 6.35938 10.4062V13.2969C5.89939 13.2969 5.45824 13.4796 5.13299 13.8049C4.80773 14.1301 4.625 14.5713 4.625 15.0312C4.625 15.4912 4.80773 15.9324 5.13299 16.2576C5.45824 16.5829 5.89939 16.7656 6.35938 16.7656H6.39247C6.47804 17.5183 6.72621 18.2435 7.1198 18.8908C7.51338 19.5381 8.04297 20.0921 8.67188 20.5144V20.8125H5.78125C5.24243 20.8103 4.71062 20.9347 4.22864 21.1756C3.74666 21.4165 3.32796 21.7672 3.00625 22.1994L3.93125 22.8937C4.14573 22.6056 4.42486 22.3717 4.74617 22.2111C5.06748 22.0504 5.42201 21.9674 5.78125 21.9688H8.67188V24.2812C8.67188 24.3691 8.6919 24.4558 8.73043 24.5348C8.76895 24.6137 8.82497 24.6828 8.89421 24.7369C8.96346 24.791 9.04412 24.8286 9.13006 24.8468C9.216 24.865 9.30496 24.8634 9.3902 24.8421L10.9844 24.4436V29.0232L7.51562 28.42V24.8594H6.35938V26.0156H3.46875V24.2812C3.46868 24.1257 3.48417 23.9706 3.515 23.8182ZM16.7656 14.4531C16.919 14.4531 17.066 14.514 17.1744 14.6225C17.2828 14.7309 17.3438 14.8779 17.3438 15.0312C17.3438 15.1846 17.2828 15.3316 17.1744 15.44C17.066 15.5485 16.919 15.6094 16.7656 15.6094V14.4531ZM6.35938 15.6094C6.20605 15.6094 6.059 15.5485 5.95058 15.44C5.84216 15.3316 5.78125 15.1846 5.78125 15.0312C5.78125 14.8779 5.84216 14.7309 5.95058 14.6225C6.059 14.514 6.20605 14.4531 6.35938 14.4531V15.6094ZM17.9219 34.6875H16.8328L14.0867 34.0414L16.2546 33.5312H19.5572C19.4373 33.8692 19.2157 34.1617 18.9229 34.3688C18.6301 34.5758 18.2805 34.6871 17.9219 34.6875ZM19.6562 28.3281H16.7656V27.1719H19.6562V28.3281ZM17.3438 21.9688C17.9569 21.9694 18.5446 22.2133 18.9782 22.6468C19.4117 23.0804 19.6556 23.6681 19.6562 24.2812V26.0156H16.7656V24.8594H15.6094V28.42L12.1406 29.0232V24.4436L13.7348 24.8421C13.82 24.8634 13.909 24.865 13.9949 24.8468C14.0809 24.8286 14.1615 24.791 14.2308 24.7369C14.3 24.6828 14.356 24.6137 14.3946 24.5348C14.4331 24.4558 14.4531 24.3691 14.4531 24.2812V21.9688H17.3438ZM12.6933 23.3899L13.2969 22.7863V23.5408L12.6933 23.3899ZM15.6094 12.3659L15.4509 12.1017C15.5043 12.0919 15.5573 12.0809 15.6094 12.0674V12.3659ZM7.51562 11.5625V10.4062C7.51614 9.94642 7.69904 9.50558 8.02418 9.18043C8.34933 8.85529 8.79017 8.67239 9.25 8.67188H16.1875V9.82812C16.1871 10.1347 16.0652 10.4286 15.8484 10.6453C15.6317 10.8621 15.3378 10.984 15.0312 10.9844H8.67188C8.57204 10.9844 8.47391 11.0102 8.38703 11.0594C8.30016 11.1086 8.2275 11.1794 8.17613 11.2651L7.51562 12.3659V11.5625ZM7.51562 16.1875V14.6133L8.99917 12.1406H14.1258L15.6094 14.6133V16.1875C15.6094 16.7189 15.5047 17.2452 15.3013 17.7362C15.098 18.2272 14.7999 18.6733 14.4241 19.0491C14.0483 19.4249 13.6022 19.7229 13.1112 19.9263C12.6202 20.1297 12.0939 20.2344 11.5625 20.2344C11.0311 20.2344 10.5048 20.1297 10.0138 19.9263C9.52284 19.7229 9.07671 19.4249 8.70093 19.0491C8.32514 18.6733 8.02705 18.2272 7.82368 17.7362C7.6203 17.2452 7.51562 16.7189 7.51562 16.1875ZM9.82812 23.5408V22.7863L10.4317 23.3899L9.82812 23.5408ZM9.82812 21.1512V21.0934C10.9504 21.4897 12.1746 21.4897 13.2969 21.0934V21.1512L11.5625 22.8856L9.82812 21.1512ZM16.2374 29.4844H19.6562V32.375H16.1875C16.1429 32.375 16.0984 32.3802 16.055 32.3904L6.29231 34.6875H5.20312C4.7433 34.687 4.30245 34.5041 3.97731 34.1789C3.65216 33.8538 3.46927 33.413 3.46875 32.9531V31.705L16.2374 29.4844ZM6.88756 29.4844L8.18835 29.7106L3.46875 30.5314V29.4844H6.88756ZM6.35938 27.1719V28.3281H3.46875V27.1719H6.35938ZM9.82812 26.0156V27.1719H8.67188V26.0156H9.82812ZM11.5625 18.449C10.8308 18.4487 10.1156 18.2314 9.50741 17.8248L10.1488 16.8627C10.5672 17.1427 11.0592 17.2921 11.5625 17.2921C12.0658 17.2921 12.5578 17.1427 12.9762 16.8627L13.6176 17.8248C13.0093 18.2314 12.2942 18.4487 11.5625 18.449ZM9.53906 15.6094C9.36755 15.6094 9.19989 15.5585 9.05728 15.4632C8.91467 15.3679 8.80352 15.2325 8.73789 15.074C8.67225 14.9156 8.65508 14.7412 8.68854 14.573C8.722 14.4048 8.80459 14.2503 8.92587 14.129C9.04715 14.0077 9.20166 13.9251 9.36988 13.8917C9.5381 13.8582 9.71246 13.8754 9.87092 13.941C10.0294 14.0066 10.1648 14.1178 10.2601 14.2604C10.3554 14.403 10.4062 14.5707 10.4062 14.7422C10.406 14.9721 10.3146 15.1925 10.152 15.3551C9.98941 15.5177 9.76898 15.6091 9.53906 15.6094ZM12.7188 14.7422C12.7188 14.5707 12.7696 14.403 12.8649 14.2604C12.9602 14.1178 13.0956 14.0066 13.2541 13.941C13.4125 13.8754 13.5869 13.8582 13.7551 13.8917C13.9233 13.9251 14.0779 14.0077 14.1991 14.129C14.3204 14.2503 14.403 14.4048 14.4365 14.573C14.4699 14.7412 14.4527 14.9156 14.3871 15.074C14.3215 15.2325 14.2103 15.3679 14.0677 15.4632C13.9251 15.5585 13.7575 15.6094 13.5859 15.6094C13.356 15.6091 13.1356 15.5177 12.973 15.3551C12.8104 15.1925 12.719 14.9721 12.7188 14.7422Z" fill="black"/>
</svg>
