<svg width="37" height="37" viewBox="0 0 37 37" fill="none" xmlns="http://www.w3.org/2000/svg">
<g clip-path="url(#clip0)">
<path d="M9.67818 10.2925L6.82968 9.87861L5.5558 7.29748C5.37585 6.90081 4.76405 6.90088 4.5841 7.29748L3.31023 9.87861L0.461732 10.2925C0.0288706 10.3411 -0.160109 10.923 0.161503 11.2167L2.22265 13.2258L1.73604 16.0629C1.64849 16.4895 2.14348 16.8491 2.52216 16.634L5.06992 15.2945L7.61768 16.634C7.99571 16.8491 8.49156 16.4895 8.40379 16.0629L7.91726 13.2258L9.97841 11.2167C10.3001 10.923 10.111 10.3412 9.67818 10.2925ZM6.95697 12.6487C6.82925 12.7733 6.77102 12.9526 6.80115 13.1283L7.15028 15.1641L5.32211 14.2029C5.16419 14.12 4.97572 14.12 4.81787 14.2029L2.9897 15.1641L3.33883 13.1283C3.36896 12.9526 3.31073 12.7733 3.18301 12.6487L1.70397 11.207L3.74793 10.9101C3.92441 10.8845 4.07698 10.7736 4.15587 10.6136L5.06992 8.76142L5.98404 10.6136C6.063 10.7736 6.2155 10.8844 6.39198 10.9101L8.43594 11.207L6.95697 12.6487Z" fill="black"/>
<path d="M9.67818 20.4781L6.82968 20.0642L5.5558 17.483C5.37585 17.0864 4.76405 17.0864 4.5841 17.483L3.31023 20.0642L0.461732 20.4781C0.0288706 20.5266 -0.160109 21.1085 0.161503 21.4022L2.22265 23.4114L1.73604 26.2484C1.64849 26.675 2.14348 27.0346 2.52216 26.8195L5.06992 25.48L7.61768 26.8195C7.99571 27.0346 8.49156 26.675 8.40379 26.2484L7.91726 23.4114L9.97841 21.4022C10.3001 21.1085 10.111 20.5267 9.67818 20.4781ZM6.95697 22.8343C6.82925 22.9588 6.77102 23.1381 6.80115 23.3139L7.15028 25.3497L5.32211 24.3884C5.16419 24.3055 4.97572 24.3055 4.81787 24.3884L2.9897 25.3497L3.33883 23.3139C3.36896 23.1381 3.31073 22.9588 3.18301 22.8343L1.70397 21.3926L3.74793 21.0956C3.92441 21.07 4.07698 20.9591 4.15587 20.7992L5.06992 18.947L5.98404 20.7992C6.063 20.9591 6.2155 21.0699 6.39198 21.0956L8.43594 21.3926L6.95697 22.8343Z" fill="black"/>
<path d="M9.67818 30.6646L6.82968 30.2507L5.5558 27.6695C5.37585 27.2729 4.76405 27.2729 4.5841 27.6695L3.31023 30.2507L0.461732 30.6646C0.0288706 30.7132 -0.160109 31.295 0.161503 31.5888L2.22265 33.5979L1.73604 36.4349C1.64849 36.8616 2.14348 37.2212 2.52216 37.006L5.06992 35.6666L7.61768 37.006C7.99571 37.2212 8.49164 36.8616 8.40379 36.4349L7.91726 33.5979L9.97841 31.5888C10.3001 31.295 10.111 30.7132 9.67818 30.6646ZM6.95697 33.0208C6.82925 33.1453 6.77102 33.3246 6.80115 33.5004L7.15028 35.5362L5.32211 34.575C5.16419 34.492 4.97572 34.492 4.81787 34.575L2.9897 35.5362L3.33883 33.5004C3.36896 33.3246 3.31073 33.1453 3.18301 33.0208L1.70397 31.5791L3.74793 31.2821C3.92441 31.2565 4.07698 31.1457 4.15587 30.9857L5.06992 29.1335L5.98404 30.9857C6.063 31.1457 6.2155 31.2565 6.39198 31.2821L8.43594 31.5791L6.95697 33.0208Z" fill="black"/>
<path d="M35.7355 8.90576H34.1747C33.8754 8.90576 33.6329 9.14827 33.6329 9.44756C33.6329 9.74685 33.8754 9.98936 34.1747 9.98936H35.7355C35.835 9.98936 35.9161 10.0703 35.9161 10.17V13.493C35.9161 13.5926 35.835 13.6736 35.7355 13.6736H14.0635C13.964 13.6736 13.8829 13.5926 13.8829 13.493V10.17C13.8829 10.0703 13.964 9.98936 14.0635 9.98936H31.6463C31.9455 9.98936 32.1881 9.74685 32.1881 9.44756C32.1881 9.14827 31.9455 8.90576 31.6463 8.90576H14.0635C13.3665 8.90576 12.7993 9.47292 12.7993 10.17V13.493C12.7993 14.19 13.3665 14.7572 14.0635 14.7572H35.7355C36.4325 14.7572 36.9997 14.19 36.9997 13.493V10.17C36.9997 9.47292 36.4326 8.90576 35.7355 8.90576Z" fill="black"/>
<path d="M16.9451 11.2896C16.6459 11.2896 16.4033 11.5321 16.4033 11.8314C16.4033 12.1306 16.6459 12.3731 16.9451 12.3731H32.1155C32.4147 12.3731 32.6573 12.1306 32.6573 11.8314C32.6573 11.5321 32.4147 11.2896 32.1155 11.2896H16.9451Z" fill="black"/>
<path d="M29.9563 19.0913H14.0635C13.3665 19.0913 12.7993 19.6585 12.7993 20.3555V23.6785C12.7993 24.3756 13.3665 24.9427 14.0635 24.9427H26.3005C26.5998 24.9427 26.8423 24.7002 26.8423 24.4009C26.8423 24.1017 26.5998 23.8591 26.3005 23.8591H14.0635C13.964 23.8591 13.8829 23.7782 13.8829 23.6785V20.3555C13.8829 20.2559 13.964 20.1749 14.0635 20.1749H29.9563C30.0559 20.1749 30.1369 20.2559 30.1369 20.3555V23.6785C30.1369 23.7782 30.0559 23.8591 29.9563 23.8591H28.8289C28.5297 23.8591 28.2871 24.1017 28.2871 24.4009C28.2871 24.7002 28.5297 24.9427 28.8289 24.9427H29.9563C30.6534 24.9427 31.2205 24.3756 31.2205 23.6785V20.3555C31.2205 19.6585 30.6534 19.0913 29.9563 19.0913Z" fill="black"/>
<path d="M27.0587 21.4751H16.9451C16.6459 21.4751 16.4033 21.7176 16.4033 22.0169C16.4033 22.3162 16.6459 22.5587 16.9451 22.5587H27.0587C27.3579 22.5587 27.6005 22.3162 27.6005 22.0169C27.6005 21.7176 27.3579 21.4751 27.0587 21.4751Z" fill="black"/>
<path d="M22.7323 29.2769H17.704C17.4048 29.2769 17.1622 29.5194 17.1622 29.8187C17.1622 30.1179 17.4048 30.3605 17.704 30.3605H22.7323C22.8319 30.3605 22.9129 30.4414 22.9129 30.5411V33.8641C22.9129 33.9637 22.8319 34.0447 22.7323 34.0447H14.0635C13.964 34.0447 13.8829 33.9637 13.8829 33.8641V30.5411C13.8829 30.4414 13.964 30.3605 14.0635 30.3605H15.1756C15.4748 30.3605 15.7174 30.1179 15.7174 29.8187C15.7174 29.5194 15.4748 29.2769 15.1756 29.2769H14.0635C13.3665 29.2769 12.7993 29.844 12.7993 30.5411V33.8641C12.7993 34.5611 13.3665 35.1283 14.0635 35.1283H22.7323C23.4294 35.1283 23.9965 34.5611 23.9965 33.8641V30.5411C23.9965 29.844 23.4294 29.2769 22.7323 29.2769Z" fill="black"/>
<path d="M20.2041 32.7442C20.5033 32.7442 20.7459 32.5017 20.7459 32.2024C20.7459 31.9032 20.5033 31.6606 20.2041 31.6606H16.5921C16.2929 31.6606 16.0503 31.9032 16.0503 32.2024C16.0503 32.5017 16.2929 32.7442 16.5921 32.7442H20.2041Z" fill="black"/>
</g>
<defs>
<clipPath id="clip0">
</clipPath>
</defs>
</svg>
