<svg width="26" height="24" viewBox="0 0 26 24" fill="none" xmlns="http://www.w3.org/2000/svg">
<path d="M12.9996 0C5.83163 0 0 5.38305 0 12.0004C0 18.617 5.83084 24 12.9996 24C13.4429 24 13.8011 23.6687 13.8011 23.2609C13.8011 22.8524 13.4429 22.5211 12.9996 22.5211C6.7151 22.5211 1.60376 17.8015 1.60376 12.0011C1.60376 6.20002 6.7151 1.48039 12.9996 1.48039C19.2841 1.48039 24.3946 6.20002 24.3946 12.0011C24.3946 14.4248 22.997 16.8287 20.9969 17.8455C20.2702 18.2143 19.4823 18.3973 18.6418 18.4046C19.1464 18.1269 19.5834 17.753 19.9081 17.2798C19.9718 17.1909 20.0561 17.1138 20.0975 17.0161C20.3586 16.4364 20.3817 15.7789 20.5393 15.1676C20.7327 14.3844 16.8319 12.8585 16.4929 13.8341C16.3703 14.1963 16.1824 15.3388 15.9365 15.64C15.7176 15.9082 15.178 15.7818 14.8405 15.5166C13.9515 14.8172 12.959 13.7886 12.0883 12.9768L12.0899 12.976C12.0676 12.9547 12.0405 12.9305 12.0167 12.9092C11.992 12.8871 11.9673 12.8636 11.9426 12.8416C11.0624 12.0386 9.94808 11.1239 9.19117 10.301C8.90464 9.98953 8.76616 9.49288 9.05746 9.29011C9.38378 9.06236 10.6222 8.89117 11.0138 8.7773C12.0692 8.46506 10.4169 4.86215 9.56843 5.04215C8.90624 5.18542 8.1939 5.20746 7.56592 5.4477C7.45927 5.48884 7.3765 5.56525 7.28019 5.62402C5.05244 6.92809 4.76511 10.0931 6.93954 12.4507C7.76808 13.3529 8.63244 14.2257 9.52227 15.078L9.5175 15.0809C9.54217 15.1037 9.56764 15.125 9.59311 15.147C9.61698 15.1698 9.64006 15.1926 9.66315 15.2168L9.66792 15.2124C10.5912 16.0338 11.6856 17.2431 13.4636 18.3385C17.2068 20.6462 20.0792 20.0018 21.7713 19.1452C24.6923 17.6604 25.9992 14.4888 25.9992 12.0048C26 5.38305 20.1676 0 12.9996 0Z" fill="#FF6E75"/>
</svg>
