<svg width="24" height="24" viewBox="0 0 24 24" fill="none" xmlns="http://www.w3.org/2000/svg">
<g clip-path="url(#clip0)">
<path d="M14.5313 9.1875C12.2567 9.1875 10.4062 11.038 10.4062 13.3125C10.4062 15.587 12.2567 17.4375 14.5313 17.4375C16.8058 17.4375 18.6563 15.587 18.6563 13.3125C18.6563 11.038 16.8058 9.1875 14.5313 9.1875ZM14.5313 16.5C12.7736 16.5 11.3438 15.0701 11.3438 13.3125C11.3438 11.5549 12.7736 10.125 14.5313 10.125C16.2889 10.125 17.7188 11.5549 17.7188 13.3125C17.7188 15.0701 16.2889 16.5 14.5313 16.5Z" fill="#FF6E75"/>
<path d="M14.5312 11.2031C14.2723 11.2031 14.0625 11.413 14.0625 11.6719C14.0625 11.9308 14.2723 12.1406 14.5312 12.1406C15.1772 12.1406 15.7029 12.6663 15.7029 13.3123C15.7029 13.5712 15.9128 13.7811 16.1717 13.7811C16.4306 13.7811 16.6404 13.5712 16.6404 13.3123C16.6404 12.1492 15.6943 11.2031 14.5312 11.2031Z" fill="#FF6E75"/>
<path d="M2.88954 4.84714C2.77052 4.61734 2.48781 4.52744 2.25783 4.64628C2.02785 4.76529 1.93794 5.04819 2.05696 5.27817L3.31874 7.71567C3.40041 7.87351 3.56557 7.97001 3.74208 7.96891C3.91969 7.96616 4.08064 7.86326 4.15755 7.70304L4.92146 6.11258L5.75111 7.71567C5.83186 7.87131 5.99245 7.96891 6.1675 7.96891H6.17445C6.35225 7.96616 6.51302 7.86326 6.5901 7.70304L7.7607 5.26554C7.87276 5.03226 7.77443 4.75211 7.54115 4.64005C7.30769 4.52799 7.02773 4.62632 6.91567 4.85978L6.15175 6.45023L5.32191 4.84714C5.24025 4.68931 5.07545 4.59244 4.89876 4.59391C4.72096 4.59665 4.56001 4.69956 4.48311 4.85978L3.71938 6.45023L2.88954 4.84714Z" fill="#FF6E75"/>
<path d="M5.90576 2.25C6.02917 2.25 6.15002 2.19983 6.23718 2.11267C6.32452 2.02551 6.37451 1.90448 6.37451 1.78125C6.37451 1.65802 6.32452 1.53699 6.23718 1.44983C6.15002 1.36267 6.02917 1.3125 5.90576 1.3125C5.78253 1.3125 5.66168 1.36267 5.57452 1.44983C5.48718 1.53699 5.43701 1.65802 5.43701 1.78125C5.43701 1.90448 5.48718 2.02551 5.57452 2.11267C5.66168 2.19983 5.78253 2.25 5.90576 2.25Z" fill="#FF6E75"/>
<path d="M24 9.375V3.1875C24 2.15369 23.1588 1.3125 22.125 1.3125H7.87445C7.61572 1.3125 7.4057 1.52234 7.4057 1.78125C7.4057 2.04016 7.61572 2.25 7.87445 2.25H22.125C22.6419 2.25 23.0625 2.67059 23.0625 3.1875V9.375C23.0625 9.89191 22.6419 10.3125 22.125 10.3125H19.875C19.8615 10.3125 19.8483 10.3134 19.8351 10.3145C19.1116 9.03973 17.9421 8.05023 16.5401 7.55933L17.235 6.11261L18.0648 7.71552C18.1454 7.87134 18.306 7.96875 18.481 7.96875H18.4882C18.6658 7.966 18.8267 7.8631 18.9036 7.70288L20.0742 5.26538C20.1863 5.0321 20.088 4.75214 19.8547 4.64008C19.6214 4.52783 19.3412 4.62616 19.2292 4.85962L18.4655 6.45007L17.6356 4.84698C17.554 4.68915 17.3893 4.59229 17.2123 4.59393C17.0345 4.5965 16.8737 4.6994 16.7968 4.85962L16.0329 6.45007L15.2032 4.84698C15.0842 4.61719 14.8013 4.52728 14.5714 4.6463C14.3414 4.76532 14.2516 5.04803 14.3705 5.27802L15.408 7.2821C15.1218 7.24072 14.8292 7.21875 14.5316 7.21875C13.9554 7.21875 13.3975 7.29932 12.8687 7.44946L13.9177 5.26538C14.0297 5.0321 13.9314 4.75214 13.6979 4.64008C13.4647 4.52783 13.1845 4.62616 13.0726 4.85962L12.3087 6.45007L11.4789 4.84698C11.3972 4.68915 11.2333 4.59229 11.0555 4.59393C10.8779 4.5965 10.717 4.6994 10.6401 4.85962L9.87634 6.45007L9.04651 4.84698C8.92749 4.61719 8.64478 4.52728 8.41479 4.6463C8.18481 4.76532 8.09491 5.04803 8.21393 5.27802L9.47571 7.71552C9.55737 7.87335 9.7218 7.96985 9.89905 7.96875C10.0767 7.966 10.2376 7.8631 10.3145 7.70288L11.0784 6.11261L11.9081 7.71552C11.922 7.74243 11.939 7.76678 11.9575 7.79004C10.808 8.328 9.85291 9.21423 9.22906 10.3125H1.875C1.35809 10.3125 0.9375 9.89191 0.9375 9.375V3.1875C0.9375 2.67059 1.35809 2.25 1.875 2.25H3.79651C4.05542 2.25 4.26526 2.04016 4.26526 1.78125C4.26526 1.52234 4.05542 1.3125 3.79651 1.3125H1.875C0.841187 1.3125 0 2.15369 0 3.1875V9.375C0 10.409 0.841187 11.25 1.875 11.25H8.7973C8.56476 11.8945 8.43768 12.5889 8.43768 13.3125C8.43768 16.6727 11.1713 19.4062 14.5314 19.4062C15.6356 19.4062 16.6721 19.1111 17.5662 18.5955L21.2866 22.3158C21.5964 22.6256 22.0034 22.7805 22.4105 22.7805C22.8175 22.7805 23.2245 22.6256 23.5344 22.3158C24.1542 21.696 24.1542 20.6876 23.5344 20.0678L22.0726 18.6061C21.8895 18.4232 21.5927 18.423 21.4098 18.6061C21.2267 18.7892 21.2267 19.0858 21.4098 19.2689L22.8715 20.7308C23.1257 20.985 23.1257 21.3986 22.8715 21.653C22.6174 21.9071 22.2037 21.9071 21.9496 21.653L18.3525 18.0557C19.7375 16.9378 20.6252 15.2271 20.6252 13.3125C20.6252 12.5889 20.4981 11.8945 20.2656 11.25H22.125C23.159 11.25 24 10.4088 24 9.375ZM14.5314 18.4688C11.6884 18.4688 9.37518 16.1556 9.37518 13.3125C9.37518 10.4694 11.6884 8.15625 14.5314 8.15625C17.3745 8.15625 19.6877 10.4694 19.6877 13.3125C19.6877 16.1556 17.3747 18.4688 14.5314 18.4688Z" fill="#FF6E75"/>
<path d="M20.2975 17.4948C20.2103 17.5819 20.1602 17.7028 20.1602 17.8262C20.1602 17.9494 20.2103 18.0703 20.2975 18.1576C20.3852 18.2448 20.5057 18.2949 20.6289 18.2949C20.7521 18.2949 20.8732 18.2448 20.9603 18.1576C21.048 18.0703 21.0977 17.9494 21.0977 17.8262C21.0977 17.7028 21.048 17.5819 20.9603 17.4948C20.8732 17.4076 20.7527 17.3574 20.6289 17.3574C20.5057 17.3574 20.3846 17.4076 20.2975 17.4948Z" fill="#FF6E75"/>
</g>
<defs>
<clipPath id="clip0">
<rect width="24" height="24" fill="white"/>
</clipPath>
</defs>
</svg>
