<?xml version="1.0" encoding="utf-8"?>
<!-- Generator: Adobe Illustrator 24.0.0, SVG Export Plug-In . SVG Version: 6.00 Build 0)  -->
<svg version="1.1"
	 id="svg4209" inkscape:version="0.48.5 r10040" sodipodi:docname="IconoAlergenoLacteos.svg" xmlns:cc="http://creativecommons.org/ns#" xmlns:dc="http://purl.org/dc/elements/1.1/" xmlns:inkscape="http://www.inkscape.org/namespaces/inkscape" xmlns:rdf="http://www.w3.org/1999/02/22-rdf-syntax-ns#" xmlns:sodipodi="http://sodipodi.sourceforge.net/DTD/sodipodi-0.dtd" xmlns:svg="http://www.w3.org/2000/svg"
	 xmlns="http://www.w3.org/2000/svg" xmlns:xlink="http://www.w3.org/1999/xlink" x="0px" y="0px" viewBox="0 0 262.2 267"
	 style="enable-background:new 0 0 262.2 267;" xml:space="preserve">
<style type="text/css">
	.st0{fill:#6D351E;stroke:#6D351E;stroke-width:0.4;stroke-linecap:round;stroke-linejoin:round;}
	.st1{fill:#FFFFFF;stroke:#FFFFFF;stroke-width:0.2788;stroke-linecap:round;stroke-linejoin:round;stroke-miterlimit:22.3065;}
	.st2{fill:#6D351E;stroke:#6D351E;stroke-width:0.2788;stroke-linejoin:round;stroke-miterlimit:22.3065;}
	.st3{fill:#6D351E;stroke:#6D351E;stroke-width:0.2788;stroke-linecap:round;stroke-linejoin:round;stroke-miterlimit:22.3065;}
</style>
<sodipodi:namedview  bordercolor="#666666" borderopacity="1.0" id="base" inkscape:current-layer="layer1" inkscape:cx="1166.5898" inkscape:cy="885.81209" inkscape:document-units="px" inkscape:pageopacity="0.0" inkscape:pageshadow="2" inkscape:window-height="924" inkscape:window-maximized="1" inkscape:window-width="1280" inkscape:window-x="0" inkscape:window-y="28" inkscape:zoom="0.20031052" pagecolor="#ffffff" showgrid="false">
	</sodipodi:namedview>
<g id="layer1" transform="translate(0,-680.31494)" inkscape:groupmode="layer" inkscape:label="Capa 1">
	<g id="g4979" transform="matrix(5.5766334,0,0,5.5766334,-1073.8786,-1027.3502)">
		<g id="g4972">
			
				<path id="path3230-0-5" sodipodi:cx="21.573027" sodipodi:cy="29.287827" sodipodi:rx="18.363815" sodipodi:ry="18.720394" sodipodi:type="arc" class="st0" d="
				M236.5,330.2c0,11.3-9.1,20.4-20.4,20.4s-20.4-9.1-20.4-20.4c0-11.3,9.1-20.4,20.4-20.4S236.5,318.9,236.5,330.2z"/>
			<g id="g4264" transform="translate(-72.470092,306.21785)">
				<path id="path4240" inkscape:connector-curvature="0" class="st1" d="M290.7,12.1l2.1-0.7l1.6-0.4l1,0l0.8,0.3l0.6,0.6l0.1,0.7
					l-0.1,0.5l-0.5,0.4l-0.9,0.5l-0.7,0.4l-0.4,0.5l-0.3,1.1l-0.2,0.9l0.2,1.3l0.7,0.9l0.9,1.3l1,2.2l0.4,1.4l0.4,2.5l0.1,1.8
					l-0.1,1.7l-0.3,1.9l-0.6,1.3l-0.7,1.1l-0.8,1.2l-0.7,0.7l-0.9,0.5L292,37l-4.3-0.1l-1.4-0.1l-0.7-0.2l-0.5-0.3l-0.7-0.8
					l-1.5-2.2l-0.6-1.6l-0.4-1.4L282,29l0-0.6l-0.5-0.7l-0.7-1.3l-0.6-1.3l-0.6-1.9l-0.2-1.1l0.2-1.6l0.3-1.5l0.6-1.3l1.2-1.3
					l1.2-0.7l1.3-0.4l-0.5-1.1l-0.2-0.8l0.1-0.5l0.7-0.5l1.4-0.4l1.5-0.2h1.1h1.1l0.7,0.1l-0.1,0.1l-0.6,0.2h-0.8l-0.9,0.1l-1.3,0.1
					l-1,0.3l-0.6,0.3l0.2,0.3l0.6,0.2l0.9,0.1l0.4,0l0.9-0.3l1.5-0.6l1.1-0.5L290.7,12.1z"/>
				<path id="path4253" inkscape:connector-curvature="0" class="st2" d="M282.1,26l0.2-1.5l0.5-1.7l0.6-1.5l0.5-1l0.5-0.7l0.1-0.3
					l0.2-0.6l0-1l-0.1-0.7l-0.1-0.2l-0.2-0.1l-0.2,0.1l-0.9,0.5l-0.6,0.5l-0.9,0.9l-0.5,0.8l-0.3,1l-0.1,1l0.1,1l0.2,1l0.3,0.9
					l0.3,0.7L282.1,26z"/>
				<path id="path4255" inkscape:connector-curvature="0" class="st3" d="M286.1,15.6l0.4-0.1l0.5,0l0.3,0.1l0.2,0.3l0.1,0.5v1
					l0,0.9l-0.1,0.9l-0.3,0.7l-0.2,0.3l-0.3,0.5l-0.3,0.5l-0.5,0.8l-0.3,0.7l-0.5,1.2l-0.4,1.1l-0.3,0.6l-0.2,0.5l-0.2,0.1l-0.2,0
					l-0.1-0.1l-0.1-0.3l0.3-1.5l0.4-1.1l0.5-1.4l0.5-1l0.5-0.9l0.3-0.7l0.1-0.6l-0.2-1.3l-0.1-0.9l0-0.4L286.1,15.6z"/>
			</g>
		</g>
	</g>
</g>
</svg>
