<?xml version="1.0" encoding="utf-8"?>
<!-- Generator: Adobe Illustrator 24.0.0, SVG Export Plug-In . SVG Version: 6.00 Build 0)  -->
<svg version="1.1"
	 id="svg4209" inkscape:version="0.48.5 r10040" sodipodi:docname="IconoAlergenoGranosSesamo.svg" xmlns:cc="http://creativecommons.org/ns#" xmlns:dc="http://purl.org/dc/elements/1.1/" xmlns:inkscape="http://www.inkscape.org/namespaces/inkscape" xmlns:rdf="http://www.w3.org/1999/02/22-rdf-syntax-ns#" xmlns:sodipodi="http://sodipodi.sourceforge.net/DTD/sodipodi-0.dtd" xmlns:svg="http://www.w3.org/2000/svg"
	 xmlns="http://www.w3.org/2000/svg" xmlns:xlink="http://www.w3.org/1999/xlink" x="0px" y="0px" viewBox="0 0 262.2 277"
	 style="enable-background:new 0 0 262.2 277;" xml:space="preserve">
<style type="text/css">
	.st0{fill:#9A8E6C;stroke:#9A8E6C;stroke-width:3;stroke-linecap:round;stroke-linejoin:round;}
	.st1{fill:#FFFFFF;stroke:#FFFFFF;stroke-width:0.2788;stroke-linecap:round;stroke-linejoin:round;stroke-miterlimit:22.3065;}
	.st2{fill:#FFFFFF;stroke:#FFFFFF;stroke-width:0.2364;stroke-linecap:round;stroke-linejoin:round;stroke-miterlimit:22.3065;}
	.st3{fill:#FFFFFF;stroke:#FFFFFF;stroke-width:0.199;stroke-linecap:round;stroke-linejoin:round;stroke-miterlimit:22.3065;}
	.st4{fill:#FFFFFF;stroke:#FFFFFF;stroke-width:0.1493;stroke-linecap:round;stroke-linejoin:round;stroke-miterlimit:22.3065;}
	.st5{fill:#FFFFFF;stroke:#FFFFFF;stroke-width:0.2227;stroke-linecap:round;stroke-linejoin:round;stroke-miterlimit:22.3065;}
</style>
<sodipodi:namedview  bordercolor="#666666" borderopacity="1.0" id="base" inkscape:current-layer="layer1" inkscape:cx="430.45687" inkscape:cy="399.3023" inkscape:document-units="px" inkscape:pageopacity="0.0" inkscape:pageshadow="2" inkscape:window-height="924" inkscape:window-maximized="1" inkscape:window-width="1280" inkscape:window-x="0" inkscape:window-y="28" inkscape:zoom="0.56656371" pagecolor="#ffffff" showgrid="false">
	</sodipodi:namedview>
<g id="layer1" transform="translate(0,-680.31494)" inkscape:groupmode="layer" inkscape:label="Capa 1">
	<g id="g3161" transform="matrix(5.5766335,0,0,5.5766335,-1112.9951,-1035.2445)">
		<g id="g3152">
			
				<path id="path3230-2-6" sodipodi:cx="21.573027" sodipodi:cy="29.287827" sodipodi:rx="18.363815" sodipodi:ry="18.720394" sodipodi:type="arc" class="st0" d="
				M242.2,332.7c0,10.6-8.6,19.1-19.1,19.1s-19.1-8.6-19.1-19.1s8.6-19.1,19.1-19.1S242.2,322.2,242.2,332.7z"/>
			<g id="g3141" transform="translate(1.8080426,0)">
				
					<path id="path4248" inkscape:connector-curvature="0" sodipodi:nodetypes="ccccccccccccccccccccccccccccccccccc" class="st1" d="
					M224.1,330.5l0.3-0.4l0.5-0.5l0.7-0.5l1.1-0.8l0.9-0.6l0.8-0.5l0.8-0.5l1.1-0.5l1.2-0.4l0.6-0.1l0.4,0l0.2,0.1
					c-1.8,2-3.6,4-5.6,5.9c0.1,0.1,0,0.4,0.3,0.3c1.9-1.9,3.7-3.9,5.5-5.9l0,0.5c0,0.3,0,0.6-0.1,1l-0.2,1.3l-0.5,1.2l-1.2,2.5
					l-0.7,1.2l-0.5,0.7l-0.5,0.6l-0.7,0.6l-0.8,0.6l-1.2,0.4c-0.4,0.1-0.8,0.2-1.2,0.1l-0.9-0.3l-0.7-0.4c-0.3-0.3-0.5-0.7-0.8-1
					c-0.2-0.5-0.3-0.9-0.3-1.2l0.1-1.1c0.2-0.6,0.6-1.4,0.8-1.7L224.1,330.5z"/>
				
					<path id="path4248-0" inkscape:connector-curvature="0" sodipodi:nodetypes="ccccccccccccccccccccccccccccccccccc" class="st2" d="
					M217.1,332.7l-0.2,0.3l-0.4,0.4l-0.6,0.4l-0.9,0.7l-0.7,0.5l-0.7,0.4l-0.7,0.4l-0.9,0.4l-1,0.3l-0.5,0.1l-0.3,0l-0.2-0.1
					c1.5-1.7,3.1-3.3,4.8-5c-0.1-0.1,0-0.4-0.3-0.3c-1.6,1.6-3.2,3.3-4.7,5l0-0.5c0-0.3,0.1-0.5,0.1-0.8l0.2-1.1l0.4-1l1-2.1l0.6-1
					l0.4-0.6l0.4-0.5l0.6-0.5l0.7-0.5l1-0.3c0.3-0.1,0.7-0.2,1-0.1l0.8,0.3l0.6,0.4c0.2,0.3,0.4,0.6,0.7,0.9
					c0.2,0.4,0.2,0.8,0.2,1.1l-0.1,1c-0.2,0.5-0.5,1.2-0.7,1.4L217.1,332.7z"/>
				
					<path id="path4248-5" inkscape:connector-curvature="0" sodipodi:nodetypes="ccccccccccccccccccccccccccccccccccc" class="st3" d="
					M220,324.1l-0.1-0.3l-0.1-0.5l-0.1-0.6l-0.2-1l-0.1-0.8l-0.1-0.7l0-0.7l0-0.9l0.1-0.9l0.1-0.4l0.1-0.3l0.1-0.1
					c0.7,1.9,1.3,3.8,1.9,5.8c0.1,0,0.2,0.2,0.3-0.1c-0.6-2-1.2-3.9-1.9-5.8l0.3,0.1c0.2,0.1,0.4,0.2,0.6,0.4l0.7,0.6l0.6,0.7
					l1.2,1.7l0.5,0.9l0.3,0.6l0.2,0.5l0.2,0.7l0.1,0.8l-0.1,0.9c0,0.3-0.1,0.6-0.3,0.9l-0.4,0.5l-0.4,0.4c-0.3,0.1-0.5,0.2-0.8,0.2
					c-0.3,0-0.6-0.1-0.8-0.2l-0.6-0.4c-0.3-0.3-0.6-0.8-0.8-1.1L220,324.1z"/>
				
					<path id="path4248-1" inkscape:connector-curvature="0" sodipodi:nodetypes="ccccccccccccccccccccccccccccccccccc" class="st4" d="
					M223.2,315.8l-0.2-0.1l-0.3-0.2l-0.3-0.3l-0.5-0.5l-0.4-0.4l-0.3-0.4l-0.3-0.4l-0.4-0.6l-0.3-0.6l-0.1-0.3l0-0.2l0-0.1
					c1.2,0.8,2.3,1.6,3.5,2.5c0.1-0.1,0.2,0,0.1-0.2c-1.1-0.8-2.3-1.7-3.5-2.4l0.2-0.1c0.1,0,0.3-0.1,0.5-0.1l0.6,0l0.6,0.1l1.3,0.3
					l0.6,0.2l0.4,0.2l0.3,0.2l0.4,0.3l0.4,0.4l0.4,0.6c0.1,0.2,0.2,0.4,0.2,0.7l0,0.6l-0.1,0.5c-0.1,0.2-0.2,0.4-0.3,0.6
					c-0.2,0.2-0.4,0.3-0.5,0.3l-0.5,0.1c-0.3,0-0.7-0.1-0.9-0.2L223.2,315.8z"/>
				
					<path id="path4248-19" inkscape:connector-curvature="0" sodipodi:nodetypes="ccccccccccccccccccccccccccccccccccc" class="st5" d="
					M219.9,345.7l-0.2-0.3l-0.2-0.5l-0.2-0.6l-0.4-1l-0.2-0.8l-0.2-0.7l-0.2-0.7l-0.1-0.9l0-0.9l0.1-0.4l0.1-0.3l0.2-0.1
					c1.1,1.8,2.2,3.6,3.2,5.5c0.1,0,0.3,0.1,0.3-0.2c-1-1.8-2.1-3.6-3.2-5.4l0.4,0.1c0.2,0.1,0.5,0.2,0.8,0.3l0.9,0.5l0.8,0.6
					l1.7,1.5l0.8,0.8l0.5,0.5l0.3,0.5l0.3,0.6l0.3,0.7l0,0.9c0,0.3,0,0.6-0.2,0.9l-0.5,0.6l-0.5,0.4c-0.3,0.1-0.7,0.2-1,0.3
					c-0.4,0-0.8,0-1.1-0.1l-0.9-0.3c-0.4-0.3-0.9-0.7-1.1-1L219.9,345.7z"/>
			</g>
		</g>
	</g>
</g>
</svg>
