<?xml version="1.0" encoding="utf-8"?>
<!-- Generator: Adobe Illustrator 24.0.0, SVG Export Plug-In . SVG Version: 6.00 Build 0)  -->
<svg version="1.1"
	 id="svg4209" inkscape:version="0.48.5 r10040" sodipodi:docname="IconoAlergenoDioxidoAzufreSulfitos.svg" xmlns:cc="http://creativecommons.org/ns#" xmlns:dc="http://purl.org/dc/elements/1.1/" xmlns:inkscape="http://www.inkscape.org/namespaces/inkscape" xmlns:rdf="http://www.w3.org/1999/02/22-rdf-syntax-ns#" xmlns:sodipodi="http://sodipodi.sourceforge.net/DTD/sodipodi-0.dtd" xmlns:svg="http://www.w3.org/2000/svg"
	 xmlns="http://www.w3.org/2000/svg" xmlns:xlink="http://www.w3.org/1999/xlink" x="0px" y="0px" viewBox="0 0 262.2 261"
	 style="enable-background:new 0 0 262.2 261;" xml:space="preserve">
<style type="text/css">
	.st0{fill:#82104E;stroke:#82104E;stroke-width:3;stroke-linecap:round;stroke-linejoin:round;}
	.st1{fill:#FFFFFF;}
	.st2{font-family:'OpenSans-Bold';}
	.st3{font-size:65px;}
	.st4{fill:#FFFFFF;stroke:#FFFFFF;stroke-width:0.2052;stroke-linecap:round;stroke-linejoin:round;stroke-miterlimit:16.412;}
	.st5{fill:#82104E;stroke:#82104E;stroke-width:0.2052;stroke-miterlimit:16.412;}
	.st6{fill:#FFFFFF;stroke:#FFFFFF;stroke-width:0.2052;stroke-miterlimit:16.412;}
	.st7{fill:#FFFFFF;stroke:#82104E;stroke-width:0.7786;stroke-linecap:round;stroke-linejoin:round;}
</style>
<sodipodi:namedview  bordercolor="#666666" borderopacity="1.0" id="base" inkscape:current-layer="layer1" inkscape:cx="751.07539" inkscape:cy="884.34989" inkscape:document-units="px" inkscape:pageopacity="0.0" inkscape:pageshadow="2" inkscape:window-height="924" inkscape:window-maximized="1" inkscape:window-width="1280" inkscape:window-x="0" inkscape:window-y="28" inkscape:zoom="0.20031052" pagecolor="#ffffff" showgrid="false">
	</sodipodi:namedview>
<g id="layer1" transform="translate(0,-680.31494)" inkscape:groupmode="layer" inkscape:label="Capa 1">
	<g id="g3298" transform="matrix(4.1030005,0,0,4.1030005,-784.27251,-540.32916)">
		<g id="g3276">
			
				<path id="path3230-2-9" sodipodi:cx="21.573027" sodipodi:cy="29.287827" sodipodi:rx="18.363815" sodipodi:ry="18.720394" sodipodi:type="arc" class="st0" d="
				M248.8,329.7c0,13.9-11.2,25.1-25.1,25.1s-25.1-11.2-25.1-25.1c0-13.9,11.2-25.1,25.1-25.1S248.8,315.8,248.8,329.7z"/>
			<g id="g4196" transform="translate(-290.43647,304.95931)">
				<g id="g4054">
					<text transform="matrix(0.2437 0 0 0.2437 502.6843 16.7917)" class="st1 st2 st3">E</text>
					<text transform="matrix(0.2437 0 0 0.2437 510.4756 16.8595)" class="st1 st2 st3">-</text>
					<text transform="matrix(0.2437 0 0 0.2437 514.6367 16.7917)" class="st1 st2 st3">X</text>
				</g>
				<path id="path4062" inkscape:connector-curvature="0" sodipodi:nodetypes="ccccccccccccccccccccccc" class="st4" d="M522.2,42.1
					l0-1.7l7.9-4.7L530,26l-7.9-4.5l0-1.8l-1.2,0v1.8l-6.8,4l-6.9-4l0-1.7l-1.2,0v1.7l-7.9,4.5l-0.1,10l7.9,4.6l0,1.6l1.2,0l0-1.7
					l6.8-4l6.9,3.9l0,1.8L522.2,42.1z"/>
				<path id="path4074" inkscape:connector-curvature="0" sodipodi:nodetypes="ccccccc" class="st5" d="M506.7,23.6l6.3,3.7l0,7.3
					l-6.4,3.8l-6.4-3.7l0-7.5L506.7,23.6z"/>
				<path id="path3266" inkscape:connector-curvature="0" sodipodi:nodetypes="ccccc" class="st6" d="M501.4,27.6l0.6,1.1l4.9-2.8
					l-0.6-1L501.4,27.6z"/>
				<path id="path4074-5" inkscape:connector-curvature="0" sodipodi:nodetypes="ccccccc" class="st5" d="M521.7,23.2l6.3,3.7l0,7.3
					l-6.4,3.8l-6.4-3.7l0-7.5L521.7,23.2z"/>
				<path id="path3266-0" inkscape:connector-curvature="0" sodipodi:nodetypes="ccccc" class="st6" d="M516.4,27.6l0.6,1.1l4.9-2.8
					l-0.6-1L516.4,27.6z"/>
				<path id="path4054" inkscape:connector-curvature="0" class="st6" d="M525.8,28.1l1.2,0l0,5.9l-5.1,3.1l-0.6-1.1l4.6-2.6
					L525.8,28.1z"/>
				<path id="path4054-2" inkscape:connector-curvature="0" sodipodi:nodetypes="ccccccc" class="st6" d="M510.8,28.1l1.3,0l0,5.9
					l-5.1,3.1l-0.7-1l4.6-2.6L510.8,28.1z"/>
				
					<path id="path4064" sodipodi:cx="500.03137" sodipodi:cy="28.692717" sodipodi:rx="1.3572516" sodipodi:ry="1.3241479" sodipodi:type="arc" class="st7" d="
					M501.2,26.8c0,1-0.8,1.8-1.8,1.8c-1,0-1.8-0.8-1.8-1.8c0-1,0.8-1.8,1.8-1.8C500.4,25,501.2,25.8,501.2,26.8z"/>
				
					<path id="path4064-8" sodipodi:cx="500.03137" sodipodi:cy="28.692717" sodipodi:rx="1.3572516" sodipodi:ry="1.3241479" sodipodi:type="arc" class="st7" d="
					M501.1,35c0,1-0.8,1.8-1.8,1.8c-1,0-1.8-0.8-1.8-1.8c0-1,0.8-1.8,1.8-1.8C500.3,33.2,501.1,34,501.1,35z"/>
				
					<path id="path4064-2" sodipodi:cx="500.03137" sodipodi:cy="28.692717" sodipodi:rx="1.3572516" sodipodi:ry="1.3241479" sodipodi:type="arc" class="st7" d="
					M515.9,35.4c0,1-0.8,1.8-1.8,1.8s-1.8-0.8-1.8-1.8s0.8-1.8,1.8-1.8C515.1,33.6,515.9,34.4,515.9,35.4z"/>
				
					<path id="path4064-0" sodipodi:cx="500.03137" sodipodi:cy="28.692717" sodipodi:rx="1.3572516" sodipodi:ry="1.3241479" sodipodi:type="arc" class="st7" d="
					M530.8,35.2c0,1-0.8,1.8-1.8,1.8c-1,0-1.8-0.8-1.8-1.8s0.8-1.8,1.8-1.8C530,33.4,530.8,34.2,530.8,35.2z"/>
			</g>
		</g>
	</g>
</g>
</svg>
